<svg width="800" height="418" viewBox="0 0 800 418" fill="none" xmlns="http://www.w3.org/2000/svg">
<rect width="800" height="418" fill="#1B1D1E"/>
<rect x="400" width="400" height="418" fill="#FFE24C"/>
<path d="M462.296 184L459.008 172.72L458.624 171.28L458.264 172.72L454.976 184H451.88L446.792 167.68H449.648L453.152 179.848L453.536 181.264L453.872 179.848L457.376 167.68H460.04L463.544 179.848L463.904 181.264L464.24 179.848L467.72 167.68H470.456L465.368 184H462.296ZM483.123 179.824C482.427 182.8 480.219 184.312 477.219 184.312C473.451 184.312 471.147 181.792 471.147 177.616C471.147 173.272 473.451 170.872 477.099 170.872C480.795 170.872 483.027 173.368 483.027 177.472V178.096H473.763C473.907 180.712 475.131 182.176 477.219 182.176C478.851 182.176 480.003 181.408 480.435 179.824H483.123ZM477.099 173.008C475.251 173.008 474.147 174.184 473.835 176.344H480.363C480.051 174.184 478.923 173.008 477.099 173.008ZM484.961 170.488V167.68H487.937V169.504C487.937 171.304 487.553 172.384 486.809 173.656H485.369C485.873 172.528 486.161 171.664 486.161 170.488H484.961ZM494.558 184L489.854 171.208H492.614L495.902 180.712L496.214 181.936L496.526 180.712L499.79 171.208H502.406L497.702 184H494.558ZM515.35 179.824C514.654 182.8 512.446 184.312 509.446 184.312C505.678 184.312 503.374 181.792 503.374 177.616C503.374 173.272 505.678 170.872 509.326 170.872C513.022 170.872 515.254 173.368 515.254 177.472V178.096H505.99C506.134 180.712 507.358 182.176 509.446 182.176C511.078 182.176 512.23 181.408 512.662 179.824H515.35ZM509.326 173.008C507.478 173.008 506.374 174.184 506.062 176.344H512.59C512.278 174.184 511.15 173.008 509.326 173.008ZM527.337 184.312C523.953 184.312 521.913 181.792 521.913 177.616C521.913 173.272 524.001 170.872 527.337 170.872C528.801 170.872 530.001 171.472 530.817 172.648V166.72H533.385V184H530.817V182.44C530.001 183.64 528.801 184.312 527.337 184.312ZM527.673 182.152C529.713 182.152 530.817 180.568 530.817 177.616C530.817 174.688 529.665 173.032 527.673 173.032C525.633 173.032 524.529 174.664 524.529 177.616C524.529 180.52 525.681 182.152 527.673 182.152ZM541.834 184.312C538.114 184.312 535.858 181.792 535.858 177.616C535.858 173.272 538.186 170.872 541.834 170.872C545.554 170.872 547.81 173.44 547.81 177.616C547.81 181.936 545.482 184.312 541.834 184.312ZM541.834 182.152C544.018 182.152 545.194 180.568 545.194 177.616C545.194 174.688 543.994 173.032 541.834 173.032C539.674 173.032 538.474 174.64 538.474 177.616C538.474 180.52 539.674 182.152 541.834 182.152ZM550.31 184V171.208H552.878V172.912C553.742 171.544 555.086 170.872 556.742 170.872C559.406 170.872 561.062 172.432 561.062 175.456V184H558.518V175.984C558.518 174.136 557.702 173.008 555.95 173.008C554.03 173.008 552.878 174.712 552.878 176.488V184H550.31ZM575.537 179.824C574.841 182.8 572.633 184.312 569.633 184.312C565.865 184.312 563.561 181.792 563.561 177.616C563.561 173.272 565.865 170.872 569.513 170.872C573.209 170.872 575.441 173.368 575.441 177.472V178.096H566.177C566.321 180.712 567.545 182.176 569.633 182.176C571.265 182.176 572.417 181.408 572.849 179.824H575.537ZM569.513 173.008C567.665 173.008 566.561 174.184 566.249 176.344H572.777C572.465 174.184 571.337 173.008 569.513 173.008ZM583.06 180.184V173.2H581.332V171.208H583.06V168.256H585.628V171.208H588.388V173.2H585.628V180.04C585.628 181.504 586.036 182.2 587.836 182.2H588.34V184.072C588.052 184.216 587.452 184.312 586.732 184.312C584.236 184.312 583.06 182.944 583.06 180.184ZM590.318 184V166.72H592.886V172.912C593.75 171.544 595.094 170.872 596.75 170.872C599.414 170.872 601.07 172.432 601.07 175.456V184H598.526V175.984C598.526 174.136 597.71 173.008 595.958 173.008C594.038 173.008 592.886 174.712 592.886 176.488V184H590.318ZM615.545 179.824C614.849 182.8 612.641 184.312 609.641 184.312C605.873 184.312 603.569 181.792 603.569 177.616C603.569 173.272 605.873 170.872 609.521 170.872C613.217 170.872 615.449 173.368 615.449 177.472V178.096H606.185C606.329 180.712 607.553 182.176 609.641 182.176C611.273 182.176 612.425 181.408 612.857 179.824H615.545ZM609.521 173.008C607.673 173.008 606.569 174.184 606.257 176.344H612.785C612.473 174.184 611.345 173.008 609.521 173.008ZM622.732 184V171.208H625.3V173.104C626.14 171.568 627.46 170.872 628.948 170.872C629.452 170.872 629.932 170.992 630.172 171.208V173.464C629.788 173.344 629.332 173.296 628.804 173.296C626.356 173.296 625.3 174.784 625.3 177.016V184H622.732ZM643.037 179.824C642.341 182.8 640.133 184.312 637.133 184.312C633.365 184.312 631.061 181.792 631.061 177.616C631.061 173.272 633.365 170.872 637.013 170.872C640.709 170.872 642.941 173.368 642.941 177.472V178.096H633.677C633.821 180.712 635.045 182.176 637.133 182.176C638.765 182.176 639.917 181.408 640.349 179.824H643.037ZM637.013 173.008C635.165 173.008 634.061 174.184 633.749 176.344H640.277C639.965 174.184 638.837 173.008 637.013 173.008ZM647.553 174.568C647.553 177.832 655.737 175.096 655.737 180.304C655.737 182.728 653.553 184.312 650.457 184.312C647.361 184.312 645.177 182.872 644.697 179.824H647.265C647.529 181.432 648.729 182.32 650.529 182.32C652.257 182.32 653.169 181.552 653.169 180.472C653.169 177.28 645.105 179.968 645.105 174.712C645.105 172.72 646.665 170.872 649.905 170.872C652.761 170.872 654.873 172.192 655.281 175.384H652.713C652.425 173.584 651.417 172.912 649.785 172.912C648.369 172.912 647.553 173.608 647.553 174.568ZM669.428 179.824C668.732 182.8 666.524 184.312 663.524 184.312C659.756 184.312 657.452 181.792 657.452 177.616C657.452 173.272 659.756 170.872 663.404 170.872C667.1 170.872 669.332 173.368 669.332 177.472V178.096H660.068C660.212 180.712 661.436 182.176 663.524 182.176C665.156 182.176 666.308 181.408 666.74 179.824H669.428ZM663.404 173.008C661.556 173.008 660.452 174.184 660.14 176.344H666.668C666.356 174.184 665.228 173.008 663.404 173.008ZM674.328 175.384H671.76C672.168 172.552 674.112 170.872 677.304 170.872C680.784 170.872 682.512 172.912 682.512 175.888V180.88C682.512 182.416 682.656 183.304 682.944 184H680.256C680.064 183.52 679.992 182.848 679.968 182.128C678.888 183.64 677.232 184.312 675.696 184.312C673.104 184.312 671.328 183.088 671.328 180.64C671.328 178.888 672.288 177.592 674.208 176.944C675.912 176.368 677.64 176.224 679.944 176.2V175.912C679.944 174.04 679.08 173.032 677.112 173.032C675.456 173.032 674.568 173.944 674.328 175.384ZM673.92 180.544C673.92 181.624 674.808 182.296 676.176 182.296C678.312 182.296 679.944 180.592 679.944 178.528V177.952C675.024 178 673.92 179.08 673.92 180.544ZM685.732 184V171.208H688.3V173.104C689.14 171.568 690.46 170.872 691.948 170.872C692.452 170.872 692.932 170.992 693.172 171.208V173.464C692.788 173.344 692.332 173.296 691.804 173.296C689.356 173.296 688.3 174.784 688.3 177.016V184H685.732ZM705.509 175.672H702.941C702.629 173.848 701.453 173.032 699.965 173.032C697.829 173.032 696.677 174.664 696.677 177.616C696.677 180.52 697.877 182.176 700.037 182.176C701.573 182.176 702.653 181.336 703.037 179.704H705.581C705.029 182.896 702.821 184.312 699.989 184.312C696.293 184.312 694.061 181.768 694.061 177.616C694.061 173.272 696.341 170.872 699.965 170.872C702.821 170.872 705.077 172.48 705.509 175.672ZM707.974 184V166.72H710.542V172.912C711.406 171.544 712.75 170.872 714.406 170.872C717.07 170.872 718.726 172.432 718.726 175.456V184H716.182V175.984C716.182 174.136 715.366 173.008 713.614 173.008C711.694 173.008 710.542 174.712 710.542 176.488V184H707.974ZM726.896 180.184V173.2H725.168V171.208H726.896V168.256H729.464V171.208H732.224V173.2H729.464V180.04C729.464 181.504 729.872 182.2 731.672 182.2H732.176V184.072C731.888 184.216 731.288 184.312 730.568 184.312C728.072 184.312 726.896 182.944 726.896 180.184ZM739.506 184.312C735.786 184.312 733.53 181.792 733.53 177.616C733.53 173.272 735.858 170.872 739.506 170.872C743.226 170.872 745.482 173.44 745.482 177.616C745.482 181.936 743.154 184.312 739.506 184.312ZM739.506 182.152C741.69 182.152 742.866 180.568 742.866 177.616C742.866 174.688 741.666 173.032 739.506 173.032C737.346 173.032 736.146 174.64 736.146 177.616C736.146 180.52 737.346 182.152 739.506 182.152ZM452.168 218.072C448.904 218.072 446.936 215.576 446.936 211.496C446.936 207.224 448.952 204.872 452.168 204.872C453.8 204.872 455.024 205.448 455.84 206.552V205.208H458.408V218.408C458.408 221.912 456.08 223.616 453.008 223.616C449.936 223.616 447.728 222.176 447.272 219.2H449.84C450.08 220.736 451.304 221.552 452.984 221.552C454.688 221.552 455.84 220.664 455.84 218.456V216.296C454.976 217.472 453.728 218.072 452.168 218.072ZM452.696 215.912C454.736 215.912 455.84 214.352 455.84 211.472C455.84 208.664 454.688 207.032 452.696 207.032C450.656 207.032 449.552 208.592 449.552 211.496C449.552 214.304 450.68 215.912 452.696 215.912ZM461.529 203.624V200.72H464.097V203.624H461.529ZM461.529 218V205.208H464.097V218H461.529ZM470.441 218L465.737 205.208H468.497L471.785 214.712L472.097 215.936L472.409 214.712L475.673 205.208H478.289L473.585 218H470.441ZM491.232 213.824C490.536 216.8 488.328 218.312 485.328 218.312C481.56 218.312 479.256 215.792 479.256 211.616C479.256 207.272 481.56 204.872 485.208 204.872C488.904 204.872 491.136 207.368 491.136 211.472V212.096H481.872C482.016 214.712 483.24 216.176 485.328 216.176C486.96 216.176 488.112 215.408 488.544 213.824H491.232ZM485.208 207.008C483.36 207.008 482.256 208.184 481.944 210.344H488.472C488.16 208.184 487.032 207.008 485.208 207.008ZM499.331 223.592C498.779 223.592 498.203 223.448 497.915 223.352V221.384H498.611C500.075 221.384 500.627 221.096 501.731 218.432L502.115 217.544L496.979 205.208H499.739L502.907 213.176L503.459 214.928L504.011 213.176L507.083 205.208H509.699L503.891 219.488C502.595 222.68 501.611 223.592 499.331 223.592ZM516.521 218.312C512.801 218.312 510.545 215.792 510.545 211.616C510.545 207.272 512.873 204.872 516.521 204.872C520.241 204.872 522.497 207.44 522.497 211.616C522.497 215.936 520.169 218.312 516.521 218.312ZM516.521 216.152C518.705 216.152 519.881 214.568 519.881 211.616C519.881 208.688 518.681 207.032 516.521 207.032C514.361 207.032 513.161 208.64 513.161 211.616C513.161 214.52 514.361 216.152 516.521 216.152ZM533.062 212.696V205.208H535.606V218H533.062V216.272C532.222 217.64 530.878 218.312 529.246 218.312C526.63 218.312 524.998 216.776 524.998 213.752V205.208H527.566V213.224C527.566 215.072 528.334 216.176 530.038 216.176C531.91 216.176 533.062 214.472 533.062 212.696ZM545.867 209.384H543.299C543.707 206.552 545.651 204.872 548.843 204.872C552.323 204.872 554.051 206.912 554.051 209.888V214.88C554.051 216.416 554.195 217.304 554.483 218H551.795C551.603 217.52 551.531 216.848 551.507 216.128C550.427 217.64 548.771 218.312 547.235 218.312C544.643 218.312 542.867 217.088 542.867 214.64C542.867 212.888 543.827 211.592 545.747 210.944C547.451 210.368 549.179 210.224 551.483 210.2V209.912C551.483 208.04 550.619 207.032 548.651 207.032C546.995 207.032 546.107 207.944 545.867 209.384ZM545.459 214.544C545.459 215.624 546.347 216.296 547.715 216.296C549.851 216.296 551.483 214.592 551.483 212.528V211.952C546.563 212 545.459 213.08 545.459 214.544ZM567.334 218.312C563.614 218.312 561.358 215.792 561.358 211.616C561.358 207.272 563.686 204.872 567.334 204.872C571.054 204.872 573.31 207.44 573.31 211.616C573.31 215.936 570.982 218.312 567.334 218.312ZM567.334 216.152C569.518 216.152 570.694 214.568 570.694 211.616C570.694 208.688 569.494 207.032 567.334 207.032C565.174 207.032 563.974 208.64 563.974 211.616C563.974 214.52 565.174 216.152 567.334 216.152ZM575.81 218V205.208H578.378V206.912C579.242 205.544 580.586 204.872 582.242 204.872C584.906 204.872 586.562 206.432 586.562 209.456V218H584.018V209.984C584.018 208.136 583.202 207.008 581.45 207.008C579.53 207.008 578.378 208.712 578.378 210.488V218H575.81ZM601.037 213.824C600.341 216.8 598.133 218.312 595.133 218.312C591.365 218.312 589.061 215.792 589.061 211.616C589.061 207.272 591.365 204.872 595.013 204.872C598.709 204.872 600.941 207.368 600.941 211.472V212.096H591.677C591.821 214.712 593.045 216.176 595.133 216.176C596.765 216.176 597.917 215.408 598.349 213.824H601.037ZM595.013 207.008C593.165 207.008 592.061 208.184 591.749 210.344H598.277C597.965 208.184 596.837 207.008 595.013 207.008ZM603.465 212.552V210.368H609.921V212.552H603.465ZM615.069 208.568C615.069 211.832 623.253 209.096 623.253 214.304C623.253 216.728 621.069 218.312 617.973 218.312C614.877 218.312 612.693 216.872 612.213 213.824H614.781C615.045 215.432 616.245 216.32 618.045 216.32C619.773 216.32 620.685 215.552 620.685 214.472C620.685 211.28 612.621 213.968 612.621 208.712C612.621 206.72 614.181 204.872 617.421 204.872C620.277 204.872 622.389 206.192 622.797 209.384H620.229C619.941 207.584 618.933 206.912 617.301 206.912C615.885 206.912 615.069 207.608 615.069 208.568ZM625.927 214.184V207.2H624.199V205.208H625.927V202.256H628.495V205.208H631.255V207.2H628.495V214.04C628.495 215.504 628.903 216.2 630.703 216.2H631.207V218.072C630.919 218.216 630.319 218.312 629.599 218.312C627.103 218.312 625.927 216.944 625.927 214.184ZM638.537 218.312C634.817 218.312 632.561 215.792 632.561 211.616C632.561 207.272 634.889 204.872 638.537 204.872C642.257 204.872 644.513 207.44 644.513 211.616C644.513 215.936 642.185 218.312 638.537 218.312ZM638.537 216.152C640.721 216.152 641.897 214.568 641.897 211.616C641.897 208.688 640.697 207.032 638.537 207.032C636.377 207.032 635.177 208.64 635.177 211.616C635.177 214.52 636.377 216.152 638.537 216.152ZM649.581 223.28H647.013V205.208H649.581V206.744C650.397 205.544 651.597 204.872 653.061 204.872C656.445 204.872 658.485 207.392 658.485 211.568C658.485 215.912 656.397 218.312 653.061 218.312C651.597 218.312 650.397 217.712 649.581 216.536V223.28ZM652.749 207.032C650.685 207.032 649.581 208.64 649.581 211.568C649.581 214.496 650.733 216.152 652.749 216.152C654.765 216.152 655.869 214.52 655.869 211.568C655.869 208.664 654.717 207.032 652.749 207.032ZM660.934 212.552V210.368H667.39V212.552H660.934ZM672.538 208.568C672.538 211.832 680.722 209.096 680.722 214.304C680.722 216.728 678.538 218.312 675.442 218.312C672.346 218.312 670.162 216.872 669.682 213.824H672.25C672.514 215.432 673.714 216.32 675.514 216.32C677.242 216.32 678.154 215.552 678.154 214.472C678.154 211.28 670.09 213.968 670.09 208.712C670.09 206.72 671.65 204.872 674.89 204.872C677.746 204.872 679.858 206.192 680.266 209.384H677.698C677.41 207.584 676.402 206.912 674.77 206.912C673.354 206.912 672.538 207.608 672.538 208.568ZM683.06 218V200.72H685.628V206.912C686.492 205.544 687.836 204.872 689.492 204.872C692.156 204.872 693.812 206.432 693.812 209.456V218H691.268V209.984C691.268 208.136 690.452 207.008 688.7 207.008C686.78 207.008 685.628 208.712 685.628 210.488V218H683.06ZM702.287 218.312C698.567 218.312 696.311 215.792 696.311 211.616C696.311 207.272 698.639 204.872 702.287 204.872C706.007 204.872 708.263 207.44 708.263 211.616C708.263 215.936 705.935 218.312 702.287 218.312ZM702.287 216.152C704.471 216.152 705.647 214.568 705.647 211.616C705.647 208.688 704.447 207.032 702.287 207.032C700.127 207.032 698.927 208.64 698.927 211.616C698.927 214.52 700.127 216.152 702.287 216.152ZM713.331 223.28H710.763V205.208H713.331V206.744C714.147 205.544 715.347 204.872 716.811 204.872C720.195 204.872 722.235 207.392 722.235 211.568C722.235 215.912 720.147 218.312 716.811 218.312C715.347 218.312 714.147 217.712 713.331 216.536V223.28ZM716.499 207.032C714.435 207.032 713.331 208.64 713.331 211.568C713.331 214.496 714.483 216.152 716.499 216.152C718.515 216.152 719.619 214.52 719.619 211.568C719.619 208.664 718.467 207.032 716.499 207.032ZM729.779 214.184V207.2H728.051V205.208H729.779V202.256H732.347V205.208H735.107V207.2H732.347V214.04C732.347 215.504 732.755 216.2 734.555 216.2H735.059V218.072C734.771 218.216 734.171 218.312 733.451 218.312C730.955 218.312 729.779 216.944 729.779 214.184ZM742.389 218.312C738.669 218.312 736.413 215.792 736.413 211.616C736.413 207.272 738.741 204.872 742.389 204.872C746.109 204.872 748.365 207.44 748.365 211.616C748.365 215.936 746.037 218.312 742.389 218.312ZM742.389 216.152C744.573 216.152 745.749 214.568 745.749 211.616C745.749 208.688 744.549 207.032 742.389 207.032C740.229 207.032 739.029 208.64 739.029 211.616C739.029 214.52 740.229 216.152 742.389 216.152ZM452.36 252.312C448.976 252.312 446.936 249.792 446.936 245.616C446.936 241.272 449.024 238.872 452.36 238.872C453.824 238.872 455.024 239.472 455.84 240.648V234.72H458.408V252H455.84V250.44C455.024 251.64 453.824 252.312 452.36 252.312ZM452.696 250.152C454.736 250.152 455.84 248.568 455.84 245.616C455.84 242.688 454.688 241.032 452.696 241.032C450.656 241.032 449.552 242.664 449.552 245.616C449.552 248.52 450.704 250.152 452.696 250.152ZM472.857 247.824C472.161 250.8 469.953 252.312 466.953 252.312C463.185 252.312 460.881 249.792 460.881 245.616C460.881 241.272 463.185 238.872 466.833 238.872C470.529 238.872 472.761 241.368 472.761 245.472V246.096H463.497C463.641 248.712 464.865 250.176 466.953 250.176C468.585 250.176 469.737 249.408 470.169 247.824H472.857ZM466.833 241.008C464.985 241.008 463.881 242.184 463.569 244.344H470.097C469.785 242.184 468.657 241.008 466.833 241.008ZM473.893 241.2V239.208H475.621V238.536C475.621 235.752 476.797 234.408 479.197 234.408C479.845 234.408 480.349 234.528 480.613 234.648V236.376H480.373C478.597 236.376 478.165 237.096 478.165 238.56V239.208H480.613V241.2H478.165V252H475.621V241.2H473.893ZM493.553 247.824C492.857 250.8 490.649 252.312 487.649 252.312C483.881 252.312 481.577 249.792 481.577 245.616C481.577 241.272 483.881 238.872 487.529 238.872C491.225 238.872 493.457 241.368 493.457 245.472V246.096H484.193C484.337 248.712 485.561 250.176 487.649 250.176C489.281 250.176 490.433 249.408 490.865 247.824H493.553ZM487.529 241.008C485.681 241.008 484.577 242.184 484.265 244.344H490.793C490.481 242.184 489.353 241.008 487.529 241.008ZM498.453 243.384H495.885C496.293 240.552 498.237 238.872 501.429 238.872C504.909 238.872 506.637 240.912 506.637 243.888V248.88C506.637 250.416 506.781 251.304 507.069 252H504.381C504.189 251.52 504.117 250.848 504.093 250.128C503.013 251.64 501.357 252.312 499.821 252.312C497.229 252.312 495.453 251.088 495.453 248.64C495.453 246.888 496.413 245.592 498.333 244.944C500.037 244.368 501.765 244.224 504.069 244.2V243.912C504.069 242.04 503.205 241.032 501.237 241.032C499.581 241.032 498.693 241.944 498.453 243.384ZM498.045 248.544C498.045 249.624 498.933 250.296 500.301 250.296C502.437 250.296 504.069 248.592 504.069 246.528V245.952C499.149 246 498.045 247.08 498.045 248.544ZM510.193 248.184V241.2H508.465V239.208H510.193V236.256H512.761V239.208H515.521V241.2H512.761V248.04C512.761 249.504 513.169 250.2 514.969 250.2H515.473V252.072C515.185 252.216 514.585 252.312 513.865 252.312C511.369 252.312 510.193 250.944 510.193 248.184ZM526.277 252V237.936H520.829V235.68H534.389V237.936H528.965V252H526.277ZM535.544 252V239.208H538.112V241.104C538.952 239.568 540.272 238.872 541.76 238.872C542.264 238.872 542.744 238.992 542.984 239.208V241.464C542.6 241.344 542.144 241.296 541.616 241.296C539.168 241.296 538.112 242.784 538.112 245.016V252H535.544ZM552.796 246.696V239.208H555.34V252H552.796V250.272C551.956 251.64 550.612 252.312 548.98 252.312C546.364 252.312 544.732 250.776 544.732 247.752V239.208H547.3V247.224C547.3 249.072 548.068 250.176 549.772 250.176C551.644 250.176 552.796 248.472 552.796 246.696ZM558.466 252V239.208H561.034V240.84C561.85 239.52 563.122 238.872 564.634 238.872C566.338 238.872 567.61 239.616 568.234 241.08C569.074 239.616 570.466 238.872 572.146 238.872C574.666 238.872 576.298 240.432 576.298 243.456V252H573.73V243.984C573.73 242.136 573.034 241.008 571.45 241.008C569.722 241.008 568.666 242.712 568.666 244.488V252H566.098V243.984C566.098 242.136 565.378 241.008 563.818 241.008C562.09 241.008 561.034 242.712 561.034 244.488V252H558.466ZM581.987 257.28H579.419V239.208H581.987V240.744C582.803 239.544 584.003 238.872 585.467 238.872C588.851 238.872 590.891 241.392 590.891 245.568C590.891 249.912 588.803 252.312 585.467 252.312C584.003 252.312 582.803 251.712 581.987 250.536V257.28ZM585.155 241.032C583.091 241.032 581.987 242.64 581.987 245.568C581.987 248.496 583.139 250.152 585.155 250.152C587.171 250.152 588.275 248.52 588.275 245.568C588.275 242.664 587.123 241.032 585.155 241.032ZM592.75 252V249.048H595.726V252H592.75Z" fill="#1B1D1E"/>
<path d="M71.956 156.276H64.504L53.004 91.6H60.824L70.024 146.616L98.728 91.6H106.364L71.956 156.276ZM111.211 156.828C107.163 156.828 103.483 156.46 100.079 156L100.815 149.468C104.495 150.112 107.899 150.48 112.315 150.48C123.539 150.48 131.543 146.8 131.543 138.52C131.543 133.92 129.887 131.16 121.239 126.376C111.855 121.132 107.163 116.532 107.163 109.264C107.163 96.568 117.467 90.956 131.819 90.956C136.511 90.956 140.099 91.324 143.411 91.784L142.767 98.408C138.995 97.764 135.407 97.396 130.807 97.396C120.687 97.396 115.075 100.524 115.075 107.792C115.075 112.668 117.835 115.52 126.851 120.672C136.051 125.916 139.363 130.516 139.363 137.048C139.363 151.308 126.851 156.828 111.211 156.828ZM148.901 156.92C145.865 156.92 143.749 154.988 143.749 151.86C143.749 148.64 145.865 146.708 148.901 146.708C151.937 146.708 153.961 148.64 153.961 151.86C153.961 154.988 151.937 156.92 148.901 156.92ZM74.9 239H67.448V181.04H46.012V174.6H96.428V181.04H74.9V239ZM112.835 239H105.383V174.6H119.827C137.215 174.6 144.483 181.868 144.483 193.276C144.483 203.856 138.503 210.204 129.487 212.688C134.915 214.62 138.319 220.692 147.611 239H138.871C126.911 214.436 126.635 213.884 117.619 213.884L117.711 213.792H112.835V239ZM120.379 180.856H112.835V208.272H120.195C131.327 208.272 136.847 203.58 136.847 193.92C136.847 185.364 132.063 180.856 120.379 180.856ZM181.84 239.92C164.912 239.92 157.736 230.904 157.736 211.308V174.6H165.188V209.376C165.188 227.408 170.892 233.48 182.208 233.48C195.364 233.48 198.676 225.016 198.676 209.376V174.6H206.128V211.308C206.128 221.428 204.196 228.972 199.688 233.664C195.824 237.896 189.936 239.92 181.84 239.92ZM223.686 239H216.602L224.33 174.324H231.506C238.866 193.184 245.95 211.216 252.942 229.616C259.658 211.216 266.742 193.184 274.01 174.324H281.37L288.822 239H281.094C278.978 219.404 277.414 203.488 275.85 185.272C269.318 203.764 262.878 221.244 256.162 239H249.17C242.454 221.612 235.646 204.224 229.206 185.916C227.55 203.948 225.71 220.324 223.686 239ZM309.952 239H302.5V174.6H318.416C335.62 174.6 343.072 181.408 343.072 194.564C343.072 209.192 333.964 216.92 316.208 216.92H309.952V239ZM319.704 180.856H309.952V210.664H317.036C329.088 210.664 335.436 205.788 335.436 194.932C335.436 185.364 330.284 180.856 319.704 180.856Z" fill="#FFE24C"/>
<path d="M60.456 322H53.004V257.6H88.056V264.04H60.456V289.984H84.376V296.24H60.456V322ZM122.992 322.92C106.064 322.92 98.8883 313.904 98.8883 294.308V257.6H106.34V292.376C106.34 310.408 112.044 316.48 123.36 316.48C136.516 316.48 139.828 308.016 139.828 292.376V257.6H147.28V294.308C147.28 304.428 145.348 311.972 140.84 316.664C136.976 320.896 131.088 322.92 122.992 322.92ZM169.064 322H162.164V257.6H168.88L203.104 308.568V257.6H210.096V322H203.288L169.064 271.032V322ZM243.296 322H227.84V257.6H241.456C265.744 257.6 276.968 268.548 276.968 289.524C276.968 314.18 261.42 322 243.296 322ZM242.928 264.04H235.292V315.56H242.836C257.74 315.56 269.24 310.04 269.24 289.524C269.24 271.676 258.936 264.04 242.928 264.04Z" fill="#6E6E6E"/>
</svg>
